<?xml version="1.0" encoding="iso-8859-1"?>
<!-- Uploaded to: SVG Repo, www.svgrepo.com, Generator: SVG Repo Mixer Tools -->
<svg version="1.1" id="Layer_1" xmlns="http://www.w3.org/2000/svg" xmlns:xlink="http://www.w3.org/1999/xlink" 
	 viewBox="0 0 497.7 497.7" xml:space="preserve">
<circle style="fill:#F15249;" cx="248.85" cy="248.8" r="248.8"/>
<path style="fill:#C93131;" d="M424.85,72.8c96.8,97.6,96.8,254.4,0,352s-254.4,96.8-352,0"/>
<polygon style="fill:#FFFFFF;" points="93.65,120.8 248.85,70.4 404.05,120.8 425.65,324 248.85,412 72.05,324 "/>
<polyline style="fill:#E2E2E2;" points="248.85,70.4 404.05,120.8 361.65,324 248.85,412 "/>
<polygon style="fill:#D1789C;" points="317.65,488.8 180.05,488.8 168.05,408.8 329.65,408.8 "/>
<polyline style="fill:#BC628B;" points="329.65,408.8 317.65,488.8 180.05,488.8 "/>
<polygon style="fill:#EFA3C2;" points="350.45,448.8 146.45,448.8 128.85,320.8 368.85,320.8 "/>
<polyline style="fill:#E598BB;" points="368.85,320.8 350.45,448.8 146.45,448.8 "/>
<polygon style="fill:#2F423F;" points="224.85,313.6 88.85,276.8 88.85,120.8 224.85,120.8 "/>
<polygon style="fill:#5E6664;" points="272.85,313.6 400.85,276.8 400.85,120.8 272.85,120.8 "/>
<polygon style="fill:#D1789C;" points="224.85,408.8 184.85,392 184.85,360 224.85,378.4 "/>
<polygon style="fill:#BC628B;" points="272.85,408.8 312.85,392 312.85,360 272.85,378.4 "/>
<polygon style="fill:#2F423F;" points="132.85,258.4 115.25,168 224.85,140.8 224.85,267.2 "/>
<polyline style="fill:#5E6664;" points="224.85,136.8 224.85,267.2 134.45,256 "/>
<polygon style="fill:#2F423F;" points="364.05,258.4 381.65,168 272.85,136.8 272.85,267.2 "/>
<polyline style="fill:#5E6664;" points="272.85,136.8 272.85,267.2 364.05,258.4 "/>
<path style="fill:#FFFFFF;" d="M206.45,224.8c0,7.2-6.4,13.6-15.2,13.6c-8,0-15.2-6.4-15.2-13.6c0-7.2,6.4-13.6,15.2-13.6
	C200.05,211.2,206.45,217.6,206.45,224.8z"/>
<path style="fill:#E2E2E2;" d="M202.45,215.2c5.6,5.6,5.6,13.6,0,19.2c-5.6,5.6-15.2,5.6-21.6,0"/>
<path style="fill:#FFFFFF;" d="M320.85,224.8c0,7.2-6.4,13.6-15.2,13.6c-8,0-15.2-6.4-15.2-13.6c0-7.2,6.4-13.6,15.2-13.6
	C313.65,211.2,320.85,217.6,320.85,224.8z"/>
<path style="fill:#E2E2E2;" d="M316.05,215.2c5.6,5.6,5.6,13.6,0,19.2c-5.6,5.6-15.2,5.6-21.6,0"/>
<polygon style="fill:#2F423F;" points="148.05,159.2 24.05,142.4 7.25,18.4 131.25,35.2 "/>
<polygon style="fill:#EFA3C2;" points="124.85,136 44.05,124.8 32.85,44 113.65,55.2 "/>
<polyline style="fill:#E598BB;" points="113.65,55.2 124.85,136 44.05,124.8 "/>
<polygon style="fill:#5E6664;" points="349.65,159.2 473.65,142.4 490.45,18.4 366.45,35.2 "/>
<polygon style="fill:#EFA3C2;" points="372.85,136 453.65,124.8 464.85,44 384.05,55.2 "/>
<polyline style="fill:#E598BB;" points="384.05,55.2 372.85,136 453.65,124.8 "/>
<polygon style="fill:#E2E2E2;" points="202.45,96 164.85,109.6 160.85,40 180.85,36 "/>
<g>
	
		<rect x="153.565" y="12.957" transform="matrix(-0.8289 -0.5594 0.5594 -0.8289 294.9341 149.7244)" style="fill:#FFFFFF;" width="33.6" height="33.6"/>
	<polygon style="fill:#FFFFFF;" points="295.25,96 332.85,109.6 336.85,40 316.85,36 	"/>
</g>
<rect x="310.92" y="12.56" transform="matrix(0.8289 -0.5594 0.5594 0.8289 39.6495 188.3498)" style="fill:#E2E2E2;" width="33.6" height="33.6"/>
</svg>