<?xml version="1.0" encoding="iso-8859-1"?>
<!-- Uploaded to: SVG Repo, www.svgrepo.com, Generator: SVG Repo Mixer Tools -->
<svg height="800px" width="800px" version="1.1" id="Layer_1" xmlns="http://www.w3.org/2000/svg" xmlns:xlink="http://www.w3.org/1999/xlink" 
	 viewBox="0 0 503.2 503.2" xml:space="preserve">
<circle style="fill:#51D687;" cx="251.6" cy="248.8" r="248.8"/>
<path style="fill:#3CC676;" d="M427.6,73.6c96.8,96.8,96.8,254.4,0,351.2s-254.4,96.8-351.2,0"/>
<polygon style="fill:#5E6664;" points="498,384.8 251.6,503.2 5.2,384.8 44.4,172.8 251.6,60 458.8,172.8 "/>
<polyline style="fill:#2F423F;" points="251.6,60 458.8,172.8 498,384.8 251.6,503.2 5.2,384.8 "/>
<g>
	<polygon style="fill:#FFFFFF;" points="498,384.8 251.6,503.2 5.2,384.8 60.4,172.8 251.6,197.6 442.8,172.8 	"/>
	<polygon style="fill:#FFFFFF;" points="498,384.8 251.6,503.2 5.2,384.8 60.4,172.8 251.6,216 442.8,172.8 	"/>
</g>
<polyline style="fill:#EDEBD3;" points="251.6,204 442.8,172.8 498,384.8 251.6,503.2 "/>
<path style="fill:#5E6664;" d="M182,226.4c0,11.2-9.6,20-22.4,20c-12,0-22.4-8.8-22.4-20s9.6-20,22.4-20
	C172.4,206.4,182,215.2,182,226.4z"/>
<path style="fill:#2F423F;" d="M175.6,212c8.8,8,8.8,20,0,28c-8.8,8-22.4,8-31.2,0"/>
<path style="fill:#5E6664;" d="M365.2,226.4c0,11.2-9.6,20-22.4,20s-22.4-8.8-22.4-20s9.6-20,22.4-20S365.2,215.2,365.2,226.4z"/>
<path style="fill:#2F423F;" d="M358.8,212c8.8,8,8.8,20,0,28s-22.4,8-31.2,0"/>
<polygon style="fill:#EDEBD3;" points="194,288 257.2,468.8 326.8,347.2 270,277.6 "/>
<polyline style="fill:#FCCC32;" points="251.6,348 309.2,288 284.4,266.4 251.6,248 251.6,249.6 251.6,248 218.8,266.4 194,288 
	246.8,342.4 "/>
<polyline style="fill:#EFAE0C;" points="251.6,348 309.2,288 284.4,266.4 251.6,248 251.6,249.6 251.6,248 "/>
</svg>